<svg width="16" height="12" viewBox="0 0 16 12" fill="none" xmlns="http://www.w3.org/2000/svg">
<path fill-rule="evenodd" clip-rule="evenodd" d="M8.33045 2.60802C10.5463 2.60811 12.6775 3.45955 14.2835 4.98635C14.4044 5.10422 14.5977 5.10274 14.7168 4.98302L15.8728 3.81635C15.9331 3.75563 15.9667 3.67338 15.9662 3.58779C15.9657 3.50221 15.9311 3.42036 15.8701 3.36035C11.655 -0.679198 5.00522 -0.679198 0.79012 3.36035C0.729062 3.42032 0.694418 3.50215 0.693855 3.58773C0.693292 3.67331 0.726856 3.75558 0.78712 3.81635L1.94345 4.98302C2.06248 5.10292 2.25593 5.10441 2.37679 4.98635C3.98294 3.45945 6.11434 2.60801 8.33045 2.60802ZM8.33044 6.40368C9.54793 6.40361 10.722 6.85614 11.6244 7.67335C11.7465 7.78933 11.9388 7.78682 12.0578 7.66768L13.2124 6.50102C13.2732 6.43982 13.307 6.3568 13.3061 6.27054C13.3052 6.18428 13.2698 6.10196 13.2078 6.04202C10.4596 3.48563 6.20364 3.48563 3.45544 6.04202C3.39336 6.10196 3.35795 6.18432 3.35713 6.27061C3.35632 6.3569 3.39017 6.43991 3.45111 6.50102L4.60544 7.66768C4.72443 7.78682 4.91671 7.78933 5.03877 7.67335C5.94065 6.85668 7.11376 6.40419 8.33044 6.40368ZM10.6434 8.9575C10.6452 9.04401 10.6112 9.12741 10.5494 9.18801L8.55211 11.2037C8.49356 11.2629 8.41374 11.2963 8.33045 11.2963C8.24715 11.2963 8.16733 11.2629 8.10878 11.2037L6.11111 9.18801C6.0494 9.12736 6.01545 9.04393 6.01728 8.95743C6.01911 8.87092 6.05656 8.789 6.12078 8.73102C7.39635 7.65213 9.26454 7.65213 10.5401 8.73102C10.6043 8.78905 10.6417 8.87099 10.6434 8.9575Z" fill="black"/>
</svg>
